<svg id="Camada_1" data-name="Camada 1" xmlns="http://www.w3.org/2000/svg" viewBox="0 0 1090.08 360.28"><defs><style>.cls-1{fill:#816e66;}.cls-2{fill:#1a1915;}.cls-3{fill:none;stroke:#816e66;stroke-miterlimit:10;stroke-width:6px;}</style></defs><path class="cls-1" d="M66.25,12.9V44.82H63.73q-1.23-9.19-4.39-14.63a22.92,22.92,0,0,0-9-8.65,25,25,0,0,0-12.11-3.19A16.5,16.5,0,0,0,26.5,22.67a13.13,13.13,0,0,0-4.63,9.83,11.66,11.66,0,0,0,2.93,7.69Q29,45.31,44.88,53.8q12.93,6.95,17.66,10.66a25.92,25.92,0,0,1,7.28,8.74,23.05,23.05,0,0,1,2.55,10.55q0,10.48-8.13,18.07t-20.93,7.59a44.07,44.07,0,0,1-7.55-.61A78.3,78.3,0,0,1,27,106.31q-6.63-2.15-8.4-2.14a3.56,3.56,0,0,0-2.69,1c-.66.68-1.15,2.09-1.46,4.22H11.94V77.76h2.52q1.75,9.94,4.76,14.87a22.81,22.81,0,0,0,9.15,8.2,28.37,28.37,0,0,0,13.51,3.27q8.5,0,13.44-4.49A13.91,13.91,0,0,0,60.26,89a14.34,14.34,0,0,0-1.87-6.87,20.52,20.52,0,0,0-5.82-6.47q-2.66-2-14.5-8.67T21.23,56.39a28.47,28.47,0,0,1-7.59-8.71A21.56,21.56,0,0,1,11.05,37.2a22.74,22.74,0,0,1,7.62-17.12q7.63-7.17,19.4-7.18a38.85,38.85,0,0,1,15.59,3.61A16.12,16.12,0,0,0,59,18.21a4,4,0,0,0,2.9-1.06c.74-.7,1.35-2.11,1.8-4.25Z"/><path class="cls-1" d="M143.63,76.4H107.9L101.64,91q-2.33,5.39-2.32,8a4.65,4.65,0,0,0,2,3.71q2,1.6,8.68,2.08v2.52H81v-2.52c3.85-.68,6.35-1.56,7.48-2.65q3.48-3.27,7.69-13.28L128.59,12.9H131l32.12,76.77q3.89,9.26,7,12t8.81,3.1v2.52H142.54v-2.52q5.52-.27,7.45-1.84a4.71,4.71,0,0,0,1.94-3.81q0-3-2.72-9.46Zm-1.9-5L126.07,34.07,110,71.36Z"/><path class="cls-1" d="M237.55,107.3,201.89,29.64V91.31q0,8.5,1.84,10.61,2.52,2.86,8,2.86H215v2.52H182.83v-2.52h3.27q5.85,0,8.3-3.54,1.5-2.17,1.5-9.93V31q0-6.14-1.36-8.85a7.5,7.5,0,0,0-3.51-3.3q-2.55-1.34-8.2-1.33V15H209l33.48,72.21L275.39,15h26.14v2.52h-3.2q-5.93,0-8.37,3.54-1.5,2.17-1.5,9.94v60.3q0,8.5,1.91,10.61,2.52,2.86,8,2.86h3.2v2.52h-39.2v-2.52h3.26q5.93,0,8.31-3.54,1.49-2.17,1.49-9.93V29.64L239.8,107.3Z"/><path class="cls-1" d="M347.47,104.78v2.52H307.93v-2.52h3.26q5.71,0,8.31-3.33,1.62-2.17,1.63-10.49V31.34q0-7-.89-9.25a6.09,6.09,0,0,0-2.79-2.93,12.85,12.85,0,0,0-6.26-1.63h-3.26V15h39.54v2.52h-3.34c-3.76,0-6.51,1.11-8.23,3.33q-1.71,2.19-1.7,10.48V91c0,4.68.29,7.76.88,9.26a6.13,6.13,0,0,0,2.86,2.93,12.51,12.51,0,0,0,6.19,1.63Z"/><path class="cls-1" d="M445.07,107.3H420.43L389.19,64.15c-2.31.09-4.2.14-5.65.14-.59,0-1.22,0-1.91,0s-1.38,0-2.11-.1V91q0,8.72,1.91,10.83,2.58,3,7.76,3h3.61v2.52H353.25v-2.52h3.48q5.85,0,8.37-3.81c.95-1.41,1.43-4.74,1.43-10V31.34q0-8.7-1.91-10.82-2.65-3-7.89-3h-3.48V15h33.63q14.7,0,21.67,2.14a24.75,24.75,0,0,1,11.84,7.9,20.49,20.49,0,0,1,4.87,13.71,21.52,21.52,0,0,1-5.55,14.77q-5.54,6.27-17.18,8.85l19.06,26.47Q428.12,98,432.82,101a28.16,28.16,0,0,0,12.25,3.81ZM379.52,59.86c.87,0,1.61,0,2.25,0l1.57,0q13.2,0,19.9-5.72A18.29,18.29,0,0,0,410,39.65q0-8.64-5.41-14t-14.33-5.42a60.53,60.53,0,0,0-10.69,1.3Z"/><path class="cls-2" d="M59.37,226.29,23.71,148.63v61.66q0,8.51,1.84,10.62c1.68,1.9,4.33,2.86,8,2.86h3.27v2.52H4.65v-2.52H7.92q5.85,0,8.3-3.54c1-1.45,1.5-4.77,1.5-9.94V150q0-6.12-1.36-8.85a7.6,7.6,0,0,0-3.51-3.3q-2.55-1.32-8.2-1.32V134H30.79l33.48,72.21L97.21,134h26.14v2.52h-3.2q-5.93,0-8.37,3.53-1.5,2.19-1.5,9.94v60.3q0,8.51,1.91,10.62c1.68,1.9,4.33,2.86,8,2.86h3.2v2.52H84.15v-2.52h3.26q5.93,0,8.31-3.54c1-1.45,1.49-4.77,1.49-9.94V148.63L61.62,226.29Z"/><path class="cls-2" d="M190.05,195.39H154.32L148.05,210c-1.54,3.59-2.31,6.26-2.31,8a4.65,4.65,0,0,0,2,3.71q2,1.6,8.68,2.08v2.52H127.36v-2.52q5.79-1,7.49-2.66,3.48-3.26,7.69-13.27l32.47-76h2.38l32.12,76.77q3.88,9.26,7.05,12c2.11,1.84,5,2.87,8.81,3.1v2.52H189v-2.52c3.67-.18,6.16-.8,7.45-1.84a4.71,4.71,0,0,0,1.94-3.81q0-3-2.72-9.46Zm-1.91-5-15.65-37.3-16.06,37.3Z"/><path class="cls-2" d="M292.14,134l1,21.64h-2.59a26.32,26.32,0,0,0-2-8.17,13.65,13.65,0,0,0-5.61-5.81,19.59,19.59,0,0,0-9.23-1.88h-13v70.51q0,8.51,1.84,10.62c1.72,1.9,4.38,2.86,8,2.86h3.2v2.52H234.56v-2.52h3.27q5.85,0,8.3-3.54c1-1.45,1.5-4.77,1.5-9.94V139.78h-11.1q-6.47,0-9.19,1a12.62,12.62,0,0,0-6.05,5q-2.52,3.68-3,9.94h-2.58L216.8,134Z"/><path class="cls-2" d="M377.28,134l1,21.64h-2.59a26.32,26.32,0,0,0-2-8.17,13.65,13.65,0,0,0-5.61-5.81,19.59,19.59,0,0,0-9.23-1.88h-13v70.51q0,8.51,1.84,10.62c1.73,1.9,4.38,2.86,8,2.86h3.19v2.52H319.7v-2.52H323q5.85,0,8.3-3.54c1-1.45,1.5-4.77,1.5-9.94V139.78h-11.1q-6.46,0-9.18,1a12.59,12.59,0,0,0-6.06,5q-2.52,3.68-3,9.94h-2.58L301.94,134Z"/><path class="cls-2" d="M434.38,195.39H398.65L392.39,210c-1.55,3.59-2.32,6.26-2.32,8a4.65,4.65,0,0,0,2,3.71q2,1.6,8.68,2.08v2.52H371.7v-2.52c3.85-.68,6.35-1.57,7.48-2.66q3.48-3.26,7.69-13.27l32.47-76h2.38l32.12,76.77q3.89,9.26,7.05,12t8.81,3.1v2.52H433.29v-2.52c3.68-.18,6.16-.8,7.45-1.84a4.71,4.71,0,0,0,1.94-3.81q0-3-2.72-9.46Zm-1.91-5-15.65-37.3-16.06,37.3Z"/><path class="cls-2" d="M565.46,226.29H540.82l-31.23-43.15c-2.32.09-4.2.13-5.65.13l-1.91,0c-.68,0-1.38-.06-2.11-.1V210q0,8.72,1.91,10.82,2.58,3,7.76,3h3.6v2.52H473.65v-2.52h3.47q5.85,0,8.37-3.81,1.42-2.11,1.43-10V150.33q0-8.72-1.9-10.82c-1.77-2-4.41-3-7.9-3h-3.47V134h33.62q14.7,0,21.68,2.14a24.75,24.75,0,0,1,11.84,7.9,20.55,20.55,0,0,1,4.87,13.71,21.54,21.54,0,0,1-5.55,14.77q-5.55,6.25-17.19,8.85L542,207.84Q548.52,217,553.21,220a28.47,28.47,0,0,0,12.25,3.81Zm-65.54-47.44q1.29,0,2.25,0c.63,0,1.15,0,1.56,0q13.2,0,19.91-5.72a18.28,18.28,0,0,0,6.7-14.56q0-8.65-5.41-14.06t-14.32-5.41a60.14,60.14,0,0,0-10.69,1.29Z"/><path class="cls-2" d="M66.11,314.37H30.38l-6.26,14.57c-1.54,3.58-2.32,6.26-2.32,8a4.67,4.67,0,0,0,2,3.71q2,1.6,8.68,2.07v2.52H3.43v-2.52c3.85-.67,6.35-1.56,7.49-2.65q3.47-3.27,7.69-13.27l32.46-76h2.38l32.13,76.78q3.87,9.25,7,12c2.11,1.83,5,2.87,8.81,3.09v2.52H65v-2.52c3.68-.18,6.16-.79,7.46-1.83a4.76,4.76,0,0,0,1.93-3.82c0-2-.9-5.15-2.72-9.45Zm-1.9-5L48.55,272l-16.06,37.3Z"/><path class="cls-2" d="M166.91,250.87V282.8h-2.52q-1.23-9.19-4.39-14.64a22.83,22.83,0,0,0-9-8.64,25,25,0,0,0-12.11-3.2,16.5,16.5,0,0,0-11.71,4.32,13.14,13.14,0,0,0-4.63,9.84,11.68,11.68,0,0,0,2.93,7.69q4.22,5.1,20.08,13.61,12.93,6.95,17.66,10.65a26,26,0,0,1,7.28,8.74A23.08,23.08,0,0,1,173,321.72a23.88,23.88,0,0,1-8.13,18.07q-8.13,7.59-20.93,7.59a44.07,44.07,0,0,1-7.55-.61,76.06,76.06,0,0,1-8.75-2.49c-4.42-1.42-7.22-2.14-8.4-2.14a3.55,3.55,0,0,0-2.69,1c-.66.68-1.15,2.09-1.47,4.22H112.6V315.73h2.51q1.77,9.94,4.77,14.88a22.88,22.88,0,0,0,9.15,8.2,28.49,28.49,0,0,0,13.51,3.27q8.51,0,13.44-4.5A13.9,13.9,0,0,0,160.92,327a14.4,14.4,0,0,0-1.87-6.88,20.63,20.63,0,0,0-5.82-6.47q-2.65-2-14.5-8.67t-16.84-10.58a28.5,28.5,0,0,1-7.59-8.72,21.53,21.53,0,0,1-2.59-10.48,22.74,22.74,0,0,1,7.62-17.12q7.64-7.17,19.4-7.18a39,39,0,0,1,15.59,3.61,15.88,15.88,0,0,0,5.37,1.7,4.09,4.09,0,0,0,2.9-1.05c.74-.7,1.35-2.12,1.8-4.26Z"/><path class="cls-2" d="M244.43,250.87V282.8h-2.52q-1.23-9.19-4.39-14.64a22.83,22.83,0,0,0-9-8.64,25,25,0,0,0-12.11-3.2,16.48,16.48,0,0,0-11.71,4.32,13.14,13.14,0,0,0-4.63,9.84,11.68,11.68,0,0,0,2.93,7.69q4.22,5.1,20.08,13.61,12.93,6.95,17.66,10.65a26,26,0,0,1,7.28,8.74,23.08,23.08,0,0,1,2.55,10.55,23.88,23.88,0,0,1-8.13,18.07q-8.13,7.59-20.93,7.59a44,44,0,0,1-7.55-.61,75.49,75.49,0,0,1-8.75-2.49c-4.42-1.42-7.23-2.14-8.41-2.14a3.54,3.54,0,0,0-2.68,1c-.66.68-1.15,2.09-1.47,4.22h-2.51V315.73h2.51q1.77,9.94,4.77,14.88a22.81,22.81,0,0,0,9.15,8.2,28.49,28.49,0,0,0,13.51,3.27q8.5,0,13.44-4.5A13.9,13.9,0,0,0,238.44,327a14.52,14.52,0,0,0-1.87-6.88,20.63,20.63,0,0,0-5.82-6.47q-2.66-2-14.5-8.67T199.4,294.37a28.6,28.6,0,0,1-7.58-8.72,21.53,21.53,0,0,1-2.59-10.48,22.74,22.74,0,0,1,7.62-17.12q7.62-7.17,19.4-7.18a39.06,39.06,0,0,1,15.59,3.61,15.88,15.88,0,0,0,5.37,1.7,4.09,4.09,0,0,0,2.9-1.05q1.11-1,1.8-4.26Z"/><path class="cls-2" d="M321.81,314.37H286.08l-6.26,14.57q-2.32,5.37-2.32,8a4.67,4.67,0,0,0,2,3.71q2,1.6,8.68,2.07v2.52H259.13v-2.52c3.85-.67,6.35-1.56,7.48-2.65q3.48-3.27,7.69-13.27l32.47-76h2.38l32.12,76.78q3.89,9.25,7.05,12c2.11,1.83,5.05,2.87,8.81,3.09v2.52H320.72v-2.52q5.52-.27,7.45-1.83a4.74,4.74,0,0,0,1.94-3.82c0-2-.9-5.15-2.72-9.45Zm-1.9-5L304.25,272l-16.06,37.3Z"/><path class="cls-2" d="M361.08,345.27v-2.52h3.47q5.85,0,8.3-3.74,1.5-2.25,1.5-10.07V269.32q0-8.64-1.9-10.82c-1.77-2-4.41-3-7.9-3h-3.47V253h37.57q20.69,0,31.48,4.7a37.47,37.47,0,0,1,17.35,15.65q6.57,11,6.57,25.32,0,19.26-11.71,32.19-13.14,14.43-40,14.43Zm26.34-6.67a69.53,69.53,0,0,0,14.5,1.91q15.78,0,26.2-11.09t10.41-30.09q0-19.12-10.41-30.15t-26.75-11a57.59,57.59,0,0,0-13.95,2Z"/><path class="cls-1" d="M717.44,187.44H700.33l-3,7a11,11,0,0,0-1.11,3.84,2.23,2.23,0,0,0,1,1.78c.64.51,2,.84,4.16,1v1.21H687.42V201a7.49,7.49,0,0,0,3.59-1.27q1.65-1.56,3.68-6.35L710.24,157h1.14l15.38,36.77q1.86,4.42,3.37,5.75a6.83,6.83,0,0,0,4.22,1.48v1.21H716.92V201a6.57,6.57,0,0,0,3.57-.88,2.26,2.26,0,0,0,.92-1.82,13.41,13.41,0,0,0-1.3-4.53Zm-.91-2.41L709,167.17,701.34,185Z"/><path class="cls-1" d="M736.24,202.24V201h1.67a4.37,4.37,0,0,0,4-1.79c.48-.72.72-2.32.72-4.82V165.87c0-2.77-.3-4.49-.91-5.19a4.81,4.81,0,0,0-3.78-1.43h-1.67V158h18q9.9,0,15.07,2.25a17.87,17.87,0,0,1,8.31,7.5,23.1,23.1,0,0,1,3.15,12.12,22.11,22.11,0,0,1-5.61,15.42q-6.28,6.9-19.16,6.91Zm12.62-3.2a33.23,33.23,0,0,0,6.94.92,16.47,16.47,0,0,0,12.55-5.32q5-5.31,5-14.4t-5-14.44a16.85,16.85,0,0,0-12.81-5.28,27.68,27.68,0,0,0-6.68.95Z"/><path class="cls-1" d="M830.7,158v1.21a7.08,7.08,0,0,0-3.55,1.5,13.45,13.45,0,0,0-3.07,4.89l-15.41,37.61h-1.21l-16.56-38.1a20.48,20.48,0,0,0-1.79-3.59,5.73,5.73,0,0,0-2-1.58,9.4,9.4,0,0,0-3.21-.73V158H802v1.21c-2,.19-3.37.54-4,1a2.38,2.38,0,0,0-.92,1.92,14.76,14.76,0,0,0,1.5,5.09l11.25,25.91,10.43-25.58a17.23,17.23,0,0,0,1.53-5.25,2.49,2.49,0,0,0-.95-1.81,6.08,6.08,0,0,0-3.19-1.22,5.64,5.64,0,0,0-.56-.1V158Z"/><path class="cls-1" d="M855.93,157a20.05,20.05,0,0,1,14.91,6.54,22.57,22.57,0,0,1,6.3,16.31q0,10.06-6.35,16.72a21.24,21.24,0,0,1-30.72.16q-6.21-6.48-6.21-16.78,0-10.53,7.17-17.18A21.19,21.19,0,0,1,855.93,157Zm-.62,2.38a11.67,11.67,0,0,0-9.52,4.4q-4.47,5.48-4.47,16,0,10.82,4.63,16.65a11.44,11.44,0,0,0,9.39,4.44,12.81,12.81,0,0,0,10.28-4.86q4.07-4.86,4.06-15.32,0-11.34-4.47-16.92A12,12,0,0,0,855.31,159.41Z"/><path class="cls-1" d="M919.91,157l1,15h-1q-2-6.75-5.77-9.71a14.05,14.05,0,0,0-9-3,13.93,13.93,0,0,0-13.54,9.35,31.68,31.68,0,0,0-2,12.16,25.88,25.88,0,0,0,1.92,10.4,14.41,14.41,0,0,0,5.79,6.74,16.57,16.57,0,0,0,8.82,2.35,15.26,15.26,0,0,0,7.59-1.84q3.29-1.84,7.24-7.32l1,.65a23.11,23.11,0,0,1-7.76,8.64,19.6,19.6,0,0,1-10.53,2.74q-11,0-17-8.15a23.28,23.28,0,0,1-4.5-14.27,25.33,25.33,0,0,1,3-12.16,21.46,21.46,0,0,1,8.16-8.59A22.08,22.08,0,0,1,904.62,157a20.76,20.76,0,0,1,9.45,2.35,5.12,5.12,0,0,0,2,.72,2.16,2.16,0,0,0,1.53-.62,5,5,0,0,0,1.2-2.45Z"/><path class="cls-1" d="M954.78,187.44H937.67l-3,7a11,11,0,0,0-1.11,3.84,2.23,2.23,0,0,0,1,1.78c.65.51,2,.84,4.16,1v1.21H924.76V201a7.49,7.49,0,0,0,3.59-1.27q1.65-1.56,3.68-6.35L947.58,157h1.14L964.1,193.8q1.86,4.42,3.37,5.75A6.84,6.84,0,0,0,971.7,201v1.21H954.26V201a6.57,6.57,0,0,0,3.57-.88,2.27,2.27,0,0,0,.93-1.82,13.49,13.49,0,0,0-1.31-4.53Zm-.91-2.41-7.5-17.86L938.68,185Z"/><path class="cls-1" d="M1012.63,157l1,15h-1q-2-6.75-5.77-9.71a14,14,0,0,0-9-3,14.63,14.63,0,0,0-8,2.23,14.83,14.83,0,0,0-5.59,7.12,31.88,31.88,0,0,0-2,12.16,25.88,25.88,0,0,0,1.92,10.4A14.36,14.36,0,0,0,990,198a16.56,16.56,0,0,0,8.81,2.35,15.3,15.3,0,0,0,7.6-1.84q3.29-1.84,7.23-7.32l1,.65a23.1,23.1,0,0,1-7.75,8.64,19.62,19.62,0,0,1-10.53,2.74q-11,0-17-8.15a23.34,23.34,0,0,1-4.49-14.27,25.32,25.32,0,0,1,3-12.16,21.48,21.48,0,0,1,8.17-8.59A22.06,22.06,0,0,1,997.35,157a20.76,20.76,0,0,1,9.45,2.35,5.09,5.09,0,0,0,2,.72,2.19,2.19,0,0,0,1.54-.62,5.13,5.13,0,0,0,1.2-2.45Z"/><path class="cls-1" d="M1037.57,201v1.21h-18.94V201h1.56a4.72,4.72,0,0,0,4-1.59c.52-.7.78-2.37.78-5V165.87a14.82,14.82,0,0,0-.42-4.44,2.93,2.93,0,0,0-1.34-1.4,6.16,6.16,0,0,0-3-.78h-1.56V158h18.94v1.21H1036a4.69,4.69,0,0,0-4,1.6c-.54.69-.81,2.37-.81,5v28.55a14.74,14.74,0,0,0,.42,4.43,3,3,0,0,0,1.37,1.4,6,6,0,0,0,3,.78Z"/><path class="cls-1" d="M1069.73,187.44h-17.11l-3,7a10.94,10.94,0,0,0-1.1,3.84,2.23,2.23,0,0,0,1,1.78c.64.51,2,.84,4.15,1v1.21h-13.91V201a7.44,7.44,0,0,0,3.58-1.27q1.67-1.56,3.68-6.35L1062.53,157h1.14l15.39,36.77c1.23,2.95,2.36,4.87,3.37,5.75a6.83,6.83,0,0,0,4.22,1.48v1.21h-17.44V201a6.57,6.57,0,0,0,3.57-.88,2.27,2.27,0,0,0,.93-1.82,13.41,13.41,0,0,0-1.3-4.53Zm-.91-2.41-7.49-17.86-7.7,17.86Z"/><line class="cls-3" x1="626.18" y1="66.12" x2="626.18" y2="294.17"/></svg>